# This file uses centimeters as units for non-parametric coordinates.

mtllib pokearriba.mtl
g default
v 0.932472 0.000000 0.636952
v 0.739009 0.000000 0.324498
v 0.445738 0.000000 0.103030
v 0.092268 0.000000 0.002459
v -0.273663 0.000000 0.036368
v -0.602635 0.000000 0.200176
v -0.850217 0.000000 0.471761
v -0.982973 0.000000 0.814444
v -0.982973 0.000000 1.181943
v -0.850217 0.000000 1.524626
v -0.602635 0.000000 1.796211
v -0.273663 0.000000 1.960019
v 0.092268 0.000000 1.993927
v 0.445738 0.000000 1.893357
v 0.739009 0.000000 1.671889
v 0.932472 0.000000 1.359435
v 1.000000 0.000000 0.998193
v 0.918306 0.173648 0.642440
v 0.727782 0.173648 0.334733
v 0.438967 0.173648 0.116630
v 0.090867 0.173648 0.017587
v -0.269505 0.173648 0.050980
v -0.593479 0.173648 0.212300
v -0.837300 0.173648 0.479759
v -0.968039 0.173648 0.817235
v -0.968039 0.173648 1.179151
v -0.837300 0.173648 1.516628
v -0.593479 0.173648 1.784087
v -0.269505 0.173648 1.945407
v 0.090867 0.173648 1.978800
v 0.438967 0.173648 1.879757
v 0.727782 0.173648 1.661654
v 0.918306 0.173648 1.353947
v 0.984808 0.173648 0.998193
v 0.876237 0.342020 0.658737
v 0.694441 0.342020 0.365127
v 0.418857 0.342020 0.157015
v 0.086704 0.342020 0.062509
v -0.257159 0.342020 0.094373
v -0.566291 0.342020 0.248303
v -0.798943 0.342020 0.503509
v -0.923693 0.342020 0.825525
v -0.923693 0.342020 1.170861
v -0.798943 0.342020 1.492878
v -0.566291 0.342020 1.748084
v -0.257159 0.342020 1.902014
v 0.086704 0.342020 1.933877
v 0.418857 0.342020 1.839372
v 0.694441 0.342020 1.631260
v 0.876237 0.342020 1.337649
v 0.939693 0.342020 0.998193
v 0.807545 0.500000 0.685349
v 0.640001 0.500000 0.414756
v 0.386021 0.500000 0.222959
v 0.079907 0.500000 0.135862
v -0.236999 0.500000 0.165228
v -0.521897 0.500000 0.307090
v -0.736310 0.500000 0.542290
v -0.851280 0.500000 0.839062
v -0.851280 0.500000 1.157325
v -0.736310 0.500000 1.454097
v -0.521897 0.500000 1.689296
v -0.236999 0.500000 1.831159
v 0.079907 0.500000 1.860524
v 0.386021 0.500000 1.773427
v 0.640001 0.500000 1.581631
v 0.807545 0.500000 1.311038
v 0.866025 0.500000 0.998193
v 0.714315 0.642788 0.721466
v 0.566114 0.642788 0.482113
v 0.341455 0.642788 0.312459
v 0.070682 0.642788 0.235417
v -0.209638 0.642788 0.261392
v -0.461645 0.642788 0.386877
v -0.651304 0.642788 0.594923
v -0.753001 0.642788 0.857433
v -0.753001 0.642788 1.138954
v -0.651304 0.642788 1.401464
v -0.461645 0.642788 1.609510
v -0.209638 0.642788 1.734995
v 0.070682 0.642788 1.760970
v 0.341455 0.642788 1.683928
v 0.566114 0.642788 1.514274
v 0.714315 0.642788 1.274920
v 0.766044 0.642788 0.998193
v 0.599382 0.766044 0.765992
v 0.475026 0.766044 0.565150
v 0.286515 0.766044 0.422794
v 0.059309 0.766044 0.358148
v -0.175907 0.766044 0.379944
v -0.387366 0.766044 0.485238
v -0.546509 0.766044 0.659809
v -0.631843 0.766044 0.880081
v -0.631843 0.766044 1.116305
v -0.546509 0.766044 1.336577
v -0.387366 0.766044 1.511149
v -0.175907 0.766044 1.616443
v 0.059309 0.766044 1.638239
v 0.286515 0.766044 1.573593
v 0.475026 0.766044 1.431237
v 0.599382 0.766044 1.230395
v 0.642788 0.766044 0.998193
v 0.466236 0.866025 0.817573
v 0.369504 0.866025 0.661346
v 0.222869 0.866025 0.550612
v 0.046134 0.866025 0.500326
v -0.136831 0.866025 0.517281
v -0.301317 0.866025 0.599185
v -0.425109 0.866025 0.734977
v -0.491487 0.866025 0.906319
v -0.491487 0.866025 1.090068
v -0.425109 0.866025 1.261409
v -0.301317 0.866025 1.397202
v -0.136831 0.866025 1.479106
v 0.046134 0.866025 1.496060
v 0.222869 0.866025 1.445775
v 0.369504 0.866025 1.335041
v 0.466236 0.866025 1.178814
v 0.500000 0.866025 0.998193
v 0.318924 0.939693 0.874641
v 0.252756 0.939693 0.767776
v 0.152452 0.939693 0.692029
v 0.031558 0.939693 0.657632
v -0.093598 0.939693 0.669230
v -0.206113 0.939693 0.725255
v -0.290791 0.939693 0.818143
v -0.336197 0.939693 0.935347
v -0.336197 0.939693 1.061039
v -0.290791 0.939693 1.178244
v -0.206113 0.939693 1.271131
v -0.093598 0.939693 1.327157
v 0.031558 0.939693 1.338754
v 0.152452 0.939693 1.304357
v 0.252756 0.939693 1.228611
v 0.318924 0.939693 1.121745
v 0.342020 0.939693 0.998193
v 0.161922 0.984808 0.935464
v 0.128328 0.984808 0.881207
v 0.077402 0.984808 0.842750
v 0.016022 0.984808 0.825286
v -0.047521 0.984808 0.831174
v -0.104646 0.984808 0.859619
v -0.147639 0.984808 0.906779
v -0.170691 0.984808 0.966286
v -0.170691 0.984808 1.030101
v -0.147639 0.984808 1.089607
v -0.104646 0.984808 1.136768
v -0.047521 0.984808 1.165213
v 0.016022 0.984808 1.171101
v 0.077402 0.984808 1.153637
v 0.128328 0.984808 1.115179
v 0.161922 0.984808 1.060922
v 0.173648 0.984808 0.998193
v 0.000000 1.000000 0.998193
vt 0.964272 0.494214
vt 1.051013 0.494163
vt 1.051034 0.561134
vt 0.964283 0.561293
vt 1.137569 0.494086
vt 1.137597 0.560894
vt 1.223882 0.493994
vt 1.223913 0.560609
vt 1.309927 0.493900
vt 1.309957 0.560315
vt -0.154091 0.493900
vt -0.068300 0.493816
vt -0.068276 0.560053
vt -0.154061 0.560315
vt 0.017280 0.493753
vt 0.017296 0.559858
vt 0.102724 0.493720
vt 0.102729 0.559754
vt 0.188119 0.493720
vt 0.188114 0.559754
vt 0.273563 0.493753
vt 0.273547 0.559858
vt 0.359143 0.493816
vt 0.359119 0.560053
vt 0.444933 0.493900
vt 0.444904 0.560315
vt 0.530979 0.493994
vt 0.530948 0.560609
vt 0.617292 0.494086
vt 0.617264 0.560894
vt 0.703848 0.494163
vt 0.703827 0.561134
vt 0.790590 0.494214
vt 0.790578 0.561293
vt 0.877430 0.494232
vt 0.877430 0.561348
vt 1.051100 0.627222
vt 0.964318 0.627479
vt 1.137684 0.626833
vt 1.224009 0.626368
vt 1.310049 0.625892
vt -0.068200 0.625467
vt -0.153969 0.625892
vt 0.017346 0.625149
vt 0.102747 0.624979
vt 0.188096 0.624979
vt 0.273497 0.625149
vt 0.359043 0.625467
vt 0.444812 0.625892
vt 0.530852 0.626368
vt 0.617177 0.626833
vt 0.703761 0.627222
vt 0.790543 0.627479
vt 0.877430 0.627570
vt 0.091892 0.968195
vt 0.082572 0.982184
vt 0.077601 0.977410
vt 0.085533 0.965539
vt 0.068827 0.991861
vt 0.065917 0.985614
vt 0.052515 0.995919
vt 0.052058 0.989044
vt 0.035838 0.993812
vt 0.037896 0.987235
vt 0.021049 0.985822
vt 0.025344 0.980432
vt 0.010145 0.973029
vt 0.016097 0.969555
vt 0.004599 0.957161
vt 0.011403 0.956071
vt 0.005159 0.940361
vt 0.011897 0.941803
vt 0.011750 0.924898
vt 0.017512 0.928677
vt 0.023482 0.912860
vt 0.027490 0.918465
vt 0.038770 0.905873
vt 0.040483 0.912548
vt 0.055550 0.904880
vt 0.054736 0.911723
vt 0.071556 0.910016
vt 0.068325 0.916103
vt 0.084625 0.920588
vt 0.079414 0.925096
vt 0.092993 0.935166
vt 0.086505 0.937488
vt 0.095530 0.951784
vt 0.088641 0.951604
vt 0.072773 0.972760
vt 0.079351 0.962948
vt 0.063094 0.979534
vt 0.051622 0.982354
vt 0.039906 0.980840
vt 0.029528 0.975195
vt 0.021890 0.966183
vt 0.018024 0.955020
vt 0.018451 0.943214
vt 0.023114 0.932360
vt 0.031383 0.923923
vt 0.042141 0.919043
vt 0.053936 0.918379
vt 0.065174 0.922020
vt 0.074338 0.929476
vt 0.080190 0.939738
vt 0.081940 0.951421
vt 0.068052 0.968194
vt 0.073299 0.960395
vt 0.060341 0.973571
vt 0.051210 0.975799
vt 0.041889 0.974578
vt 0.033639 0.970073
vt 0.027574 0.962892
vt 0.024513 0.954004
vt 0.024868 0.944611
vt 0.028593 0.935981
vt 0.035184 0.929279
vt 0.043751 0.925410
vt 0.053137 0.924898
vt 0.062074 0.927811
vt 0.069356 0.933755
vt 0.073998 0.941929
vt 0.075375 0.951227
vt 0.063415 0.963682
vt 0.067345 0.957863
vt 0.057648 0.967688
vt 0.050822 0.969341
vt 0.043861 0.968416
vt 0.037704 0.965039
vt 0.033183 0.959666
vt 0.030908 0.953023
vt 0.031186 0.946006
vt 0.033980 0.939564
vt 0.038913 0.934566
vt 0.045318 0.931688
vt 0.052331 0.931317
vt 0.059003 0.933505
vt 0.064435 0.937956
vt 0.067892 0.944068
vt 0.068908 0.951016
vt 0.058842 0.959201
vt 0.061463 0.955336
vt 0.055003 0.961858
vt 0.050462 0.962949
vt 0.045834 0.962326
vt 0.041744 0.960073
vt 0.038744 0.956495
vt 0.037239 0.952074
vt 0.037432 0.947409
vt 0.039298 0.943128
vt 0.042584 0.939811
vt 0.046847 0.937904
vt 0.051511 0.937666
vt 0.055945 0.939129
vt 0.059552 0.942095
vt 0.061843 0.946164
vt 0.062511 0.950786
vt 0.054316 0.954733
vt 0.055628 0.952805
vt 0.052396 0.956057
vt 0.050128 0.956598
vt 0.047817 0.956283
vt 0.045776 0.955154
vt 0.044280 0.953364
vt 0.043532 0.951155
vt 0.043633 0.948825
vt 0.044568 0.946689
vt 0.046212 0.945035
vt 0.048343 0.944086
vt 0.050672 0.943971
vt 0.052886 0.944705
vt 0.054685 0.946190
vt 0.055826 0.948224
vt 0.056156 0.950533
vt 0.049815 0.950259
vn 0.928924 0.087155 -0.359867
vn 0.736197 0.087156 -0.671132
vn 0.728181 0.170557 -0.663824
vn 0.918809 0.170557 -0.355949
vn 0.444042 0.087156 -0.891757
vn 0.439207 0.170557 -0.882047
vn 0.091917 0.087156 -0.991945
vn 0.090917 0.170557 -0.981144
vn -0.272622 0.087156 -0.958166
vn -0.269653 0.170558 -0.947733
vn -0.600341 0.087156 -0.794981
vn -0.593805 0.170558 -0.786325
vn -0.846982 0.087156 -0.524429
vn -0.837760 0.170557 -0.518719
vn -0.979233 0.087156 -0.183050
vn -0.968570 0.170557 -0.181057
vn -0.979233 0.087156 0.183050
vn -0.968570 0.170557 0.181057
vn -0.846982 0.087156 0.524429
vn -0.837759 0.170558 0.518719
vn -0.600341 0.087156 0.794981
vn -0.593805 0.170557 0.786325
vn -0.272622 0.087155 0.958166
vn -0.269653 0.170557 0.947733
vn 0.091917 0.087156 0.991945
vn 0.090916 0.170557 0.981144
vn 0.444042 0.087156 0.891757
vn 0.439207 0.170557 0.882047
vn 0.736197 0.087156 0.671132
vn 0.728181 0.170557 0.663825
vn 0.928924 0.087156 0.359867
vn 0.918809 0.170557 0.355949
vn 0.996195 0.087156 -0.000000
vn 0.985348 0.170557 -0.000000
vn 0.696020 0.336092 -0.634506
vn 0.878229 0.336092 -0.340228
vn 0.419809 0.336092 -0.843091
vn 0.086901 0.336092 -0.937811
vn -0.257744 0.336092 -0.905876
vn -0.567579 0.336092 -0.751596
vn -0.800759 0.336092 -0.495809
vn -0.925793 0.336092 -0.173061
vn -0.925793 0.336092 0.173061
vn -0.800759 0.336092 0.495809
vn -0.567579 0.336092 0.751596
vn -0.257744 0.336092 0.905875
vn 0.086901 0.336092 0.937811
vn 0.419809 0.336092 0.843091
vn 0.696020 0.336092 0.634506
vn 0.878230 0.336092 0.340228
vn 0.941829 0.336092 -0.000000
vn 0.643497 0.491714 -0.586625
vn 0.811957 0.491714 -0.314554
vn 0.388130 0.491714 -0.779470
vn 0.080343 0.491714 -0.867042
vn -0.238294 0.491714 -0.837516
vn -0.524748 0.491714 -0.694879
vn -0.740332 0.491714 -0.458394
vn -0.855930 0.491714 -0.160001
vn -0.855930 0.491714 0.160001
vn -0.740332 0.491714 0.458394
vn -0.524748 0.491714 0.694879
vn -0.238294 0.491714 0.837516
vn 0.080343 0.491714 0.867042
vn 0.388130 0.491714 0.779469
vn 0.643497 0.491714 0.586625
vn 0.811957 0.491714 0.314554
vn 0.870757 0.491714 -0.000000
vn 0.572227 0.632797 -0.521654
vn 0.722030 0.632797 -0.279716
vn 0.345143 0.632797 -0.693141
vn 0.071445 0.632797 -0.771014
vn -0.211902 0.632797 -0.744758
vn -0.466630 0.632797 -0.617919
vn -0.658338 0.632797 -0.407626
vn -0.761133 0.632797 -0.142281
vn -0.761133 0.632797 0.142281
vn -0.658338 0.632797 0.407626
vn -0.466630 0.632797 0.617919
vn -0.211902 0.632797 0.744758
vn 0.071445 0.632797 0.771015
vn 0.345143 0.632797 0.693141
vn 0.572228 0.632797 0.521654
vn 0.722029 0.632797 0.279716
vn 0.774317 0.632797 -0.000000
vn 0.484497 0.755105 -0.441678
vn 0.611332 0.755105 -0.236832
vn 0.292228 0.755105 -0.586873
vn 0.060492 0.755105 -0.652807
vn -0.179415 0.755105 -0.630577
vn -0.395090 0.755105 -0.523183
vn -0.557406 0.755105 -0.345131
vn -0.644441 0.755105 -0.120467
vn -0.644441 0.755105 0.120467
vn -0.557406 0.755105 0.345131
vn -0.395090 0.755105 0.523183
vn -0.179415 0.755105 0.630577
vn 0.060492 0.755105 0.652807
vn 0.292228 0.755105 0.586873
vn 0.484497 0.755105 0.441678
vn 0.611333 0.755105 0.236832
vn 0.655604 0.755105 -0.000000
vn 0.383387 0.854905 -0.349503
vn 0.483753 0.854905 -0.187407
vn 0.231242 0.854905 -0.464397
vn 0.047867 0.854905 -0.516572
vn -0.141972 0.854905 -0.498981
vn -0.312638 0.854905 -0.413999
vn -0.441080 0.854905 -0.273105
vn -0.509951 0.854905 -0.095327
vn -0.509952 0.854905 0.095327
vn -0.441080 0.854905 0.273105
vn -0.312638 0.854905 0.413999
vn -0.141972 0.854905 0.498980
vn 0.047868 0.854905 0.516572
vn 0.231242 0.854905 0.464397
vn 0.383387 0.854905 0.349503
vn 0.483753 0.854905 0.187407
vn 0.518785 0.854905 -0.000000
vn 0.273397 0.929051 -0.249234
vn 0.344969 0.929051 -0.133642
vn 0.164901 0.929051 -0.331166
vn 0.034135 0.929052 -0.368372
vn -0.101242 0.929051 -0.355828
vn -0.222945 0.929051 -0.295227
vn -0.314538 0.929051 -0.194754
vn -0.363651 0.929051 -0.067978
vn -0.363652 0.929052 0.067978
vn -0.314538 0.929051 0.194754
vn -0.222945 0.929052 0.295227
vn -0.101242 0.929052 0.355828
vn 0.034135 0.929051 0.368372
vn 0.164901 0.929051 0.331166
vn 0.273397 0.929052 0.249234
vn 0.344969 0.929051 0.133642
vn 0.369951 0.929051 -0.000000
vn 0.164957 0.974770 -0.150378
vn 0.208140 0.974770 -0.080634
vn 0.099495 0.974770 -0.199812
vn 0.020595 0.974770 -0.222261
vn -0.061085 0.974770 -0.214692
vn -0.134516 0.974770 -0.178128
vn -0.189780 0.974770 -0.117506
vn -0.219413 0.974770 -0.041015
vn -0.219413 0.974770 0.041015
vn -0.189780 0.974770 0.117507
vn -0.134516 0.974770 0.178128
vn -0.061085 0.974770 0.214692
vn 0.020596 0.974770 0.222261
vn 0.099495 0.974770 0.199812
vn 0.164957 0.974770 0.150378
vn 0.208140 0.974770 0.080634
vn 0.223213 0.974770 0.000000
vn 0.000000 1.000000 -0.000000
s 1
g polySurface2 pSphere1
usemtl lambert4SG
f 1/1/1 2/2/2 19/3/3 18/4/4
f 2/2/2 3/5/5 20/6/6 19/3/3
f 3/5/5 4/7/7 21/8/8 20/6/6
f 4/7/7 5/9/9 22/10/10 21/8/8
f 5/11/9 6/12/11 23/13/12 22/14/10
f 6/12/11 7/15/13 24/16/14 23/13/12
f 7/15/13 8/17/15 25/18/16 24/16/14
f 8/17/15 9/19/17 26/20/18 25/18/16
f 9/19/17 10/21/19 27/22/20 26/20/18
f 10/21/19 11/23/21 28/24/22 27/22/20
f 11/23/21 12/25/23 29/26/24 28/24/22
f 12/25/23 13/27/25 30/28/26 29/26/24
f 13/27/25 14/29/27 31/30/28 30/28/26
f 14/29/27 15/31/29 32/32/30 31/30/28
f 15/31/29 16/33/31 33/34/32 32/32/30
f 16/33/31 17/35/33 34/36/34 33/34/32
f 17/35/33 1/1/1 18/4/4 34/36/34
f 18/4/4 19/3/3 36/37/35 35/38/36
f 19/3/3 20/6/6 37/39/37 36/37/35
f 20/6/6 21/8/8 38/40/38 37/39/37
f 21/8/8 22/10/10 39/41/39 38/40/38
f 22/14/10 23/13/12 40/42/40 39/43/39
f 23/13/12 24/16/14 41/44/41 40/42/40
f 24/16/14 25/18/16 42/45/42 41/44/41
f 25/18/16 26/20/18 43/46/43 42/45/42
f 26/20/18 27/22/20 44/47/44 43/46/43
f 27/22/20 28/24/22 45/48/45 44/47/44
f 28/24/22 29/26/24 46/49/46 45/48/45
f 29/26/24 30/28/26 47/50/47 46/49/46
f 30/28/26 31/30/28 48/51/48 47/50/47
f 31/30/28 32/32/30 49/52/49 48/51/48
f 32/32/30 33/34/32 50/53/50 49/52/49
f 33/34/32 34/36/34 51/54/51 50/53/50
f 34/36/34 18/4/4 35/38/36 51/54/51
f 35/55/36 36/56/35 53/57/52 52/58/53
f 36/56/35 37/59/37 54/60/54 53/57/52
f 37/59/37 38/61/38 55/62/55 54/60/54
f 38/61/38 39/63/39 56/64/56 55/62/55
f 39/63/39 40/65/40 57/66/57 56/64/56
f 40/65/40 41/67/41 58/68/58 57/66/57
f 41/67/41 42/69/42 59/70/59 58/68/58
f 42/69/42 43/71/43 60/72/60 59/70/59
f 43/71/43 44/73/44 61/74/61 60/72/60
f 44/73/44 45/75/45 62/76/62 61/74/61
f 45/75/45 46/77/46 63/78/63 62/76/62
f 46/77/46 47/79/47 64/80/64 63/78/63
f 47/79/47 48/81/48 65/82/65 64/80/64
f 48/81/48 49/83/49 66/84/66 65/82/65
f 49/83/49 50/85/50 67/86/67 66/84/66
f 50/85/50 51/87/51 68/88/68 67/86/67
f 51/87/51 35/55/36 52/58/53 68/88/68
f 52/58/53 53/57/52 70/89/69 69/90/70
f 53/57/52 54/60/54 71/91/71 70/89/69
f 54/60/54 55/62/55 72/92/72 71/91/71
f 55/62/55 56/64/56 73/93/73 72/92/72
f 56/64/56 57/66/57 74/94/74 73/93/73
f 57/66/57 58/68/58 75/95/75 74/94/74
f 58/68/58 59/70/59 76/96/76 75/95/75
f 59/70/59 60/72/60 77/97/77 76/96/76
f 60/72/60 61/74/61 78/98/78 77/97/77
f 61/74/61 62/76/62 79/99/79 78/98/78
f 62/76/62 63/78/63 80/100/80 79/99/79
f 63/78/63 64/80/64 81/101/81 80/100/80
f 64/80/64 65/82/65 82/102/82 81/101/81
f 65/82/65 66/84/66 83/103/83 82/102/82
f 66/84/66 67/86/67 84/104/84 83/103/83
f 67/86/67 68/88/68 85/105/85 84/104/84
f 68/88/68 52/58/53 69/90/70 85/105/85
f 69/90/70 70/89/69 87/106/86 86/107/87
f 70/89/69 71/91/71 88/108/88 87/106/86
f 71/91/71 72/92/72 89/109/89 88/108/88
f 72/92/72 73/93/73 90/110/90 89/109/89
f 73/93/73 74/94/74 91/111/91 90/110/90
f 74/94/74 75/95/75 92/112/92 91/111/91
f 75/95/75 76/96/76 93/113/93 92/112/92
f 76/96/76 77/97/77 94/114/94 93/113/93
f 77/97/77 78/98/78 95/115/95 94/114/94
f 78/98/78 79/99/79 96/116/96 95/115/95
f 79/99/79 80/100/80 97/117/97 96/116/96
f 80/100/80 81/101/81 98/118/98 97/117/97
f 81/101/81 82/102/82 99/119/99 98/118/98
f 82/102/82 83/103/83 100/120/100 99/119/99
f 83/103/83 84/104/84 101/121/101 100/120/100
f 84/104/84 85/105/85 102/122/102 101/121/101
f 85/105/85 69/90/70 86/107/87 102/122/102
f 86/107/87 87/106/86 104/123/103 103/124/104
f 87/106/86 88/108/88 105/125/105 104/123/103
f 88/108/88 89/109/89 106/126/106 105/125/105
f 89/109/89 90/110/90 107/127/107 106/126/106
f 90/110/90 91/111/91 108/128/108 107/127/107
f 91/111/91 92/112/92 109/129/109 108/128/108
f 92/112/92 93/113/93 110/130/110 109/129/109
f 93/113/93 94/114/94 111/131/111 110/130/110
f 94/114/94 95/115/95 112/132/112 111/131/111
f 95/115/95 96/116/96 113/133/113 112/132/112
f 96/116/96 97/117/97 114/134/114 113/133/113
f 97/117/97 98/118/98 115/135/115 114/134/114
f 98/118/98 99/119/99 116/136/116 115/135/115
f 99/119/99 100/120/100 117/137/117 116/136/116
f 100/120/100 101/121/101 118/138/118 117/137/117
f 101/121/101 102/122/102 119/139/119 118/138/118
f 102/122/102 86/107/87 103/124/104 119/139/119
f 103/124/104 104/123/103 121/140/120 120/141/121
f 104/123/103 105/125/105 122/142/122 121/140/120
f 105/125/105 106/126/106 123/143/123 122/142/122
f 106/126/106 107/127/107 124/144/124 123/143/123
f 107/127/107 108/128/108 125/145/125 124/144/124
f 108/128/108 109/129/109 126/146/126 125/145/125
f 109/129/109 110/130/110 127/147/127 126/146/126
f 110/130/110 111/131/111 128/148/128 127/147/127
f 111/131/111 112/132/112 129/149/129 128/148/128
f 112/132/112 113/133/113 130/150/130 129/149/129
f 113/133/113 114/134/114 131/151/131 130/150/130
f 114/134/114 115/135/115 132/152/132 131/151/131
f 115/135/115 116/136/116 133/153/133 132/152/132
f 116/136/116 117/137/117 134/154/134 133/153/133
f 117/137/117 118/138/118 135/155/135 134/154/134
f 118/138/118 119/139/119 136/156/136 135/155/135
f 119/139/119 103/124/104 120/141/121 136/156/136
f 120/141/121 121/140/120 138/157/137 137/158/138
f 121/140/120 122/142/122 139/159/139 138/157/137
f 122/142/122 123/143/123 140/160/140 139/159/139
f 123/143/123 124/144/124 141/161/141 140/160/140
f 124/144/124 125/145/125 142/162/142 141/161/141
f 125/145/125 126/146/126 143/163/143 142/162/142
f 126/146/126 127/147/127 144/164/144 143/163/143
f 127/147/127 128/148/128 145/165/145 144/164/144
f 128/148/128 129/149/129 146/166/146 145/165/145
f 129/149/129 130/150/130 147/167/147 146/166/146
f 130/150/130 131/151/131 148/168/148 147/167/147
f 131/151/131 132/152/132 149/169/149 148/168/148
f 132/152/132 133/153/133 150/170/150 149/169/149
f 133/153/133 134/154/134 151/171/151 150/170/150
f 134/154/134 135/155/135 152/172/152 151/171/151
f 135/155/135 136/156/136 153/173/153 152/172/152
f 136/156/136 120/141/121 137/158/138 153/173/153
f 137/158/138 138/157/137 154/174/154
f 138/157/137 139/159/139 154/174/154
f 139/159/139 140/160/140 154/174/154
f 140/160/140 141/161/141 154/174/154
f 141/161/141 142/162/142 154/174/154
f 142/162/142 143/163/143 154/174/154
f 143/163/143 144/164/144 154/174/154
f 144/164/144 145/165/145 154/174/154
f 145/165/145 146/166/146 154/174/154
f 146/166/146 147/167/147 154/174/154
f 147/167/147 148/168/148 154/174/154
f 148/168/148 149/169/149 154/174/154
f 149/169/149 150/170/150 154/174/154
f 150/170/150 151/171/151 154/174/154
f 151/171/151 152/172/152 154/174/154
f 152/172/152 153/173/153 154/174/154
f 153/173/153 137/158/138 154/174/154
