# This file uses centimeters as units for non-parametric coordinates.

mtllib pokeabajo.mtl
g default
v 0.161922 -0.984808 0.935271
v 0.128328 -0.984808 0.881014
v 0.077402 -0.984808 0.842557
v 0.016022 -0.984808 0.825093
v -0.047521 -0.984808 0.830981
v -0.104646 -0.984808 0.859426
v -0.147639 -0.984808 0.906586
v -0.170691 -0.984808 0.966092
v -0.170691 -0.984808 1.029908
v -0.147639 -0.984808 1.089414
v -0.104646 -0.984808 1.136574
v -0.047521 -0.984808 1.165019
v 0.016022 -0.984808 1.170907
v 0.077402 -0.984808 1.153443
v 0.128328 -0.984808 1.114986
v 0.161922 -0.984808 1.060729
v 0.173648 -0.984808 0.998000
v 0.318924 -0.939693 0.874448
v 0.252756 -0.939693 0.767583
v 0.152452 -0.939693 0.691836
v 0.031558 -0.939693 0.657439
v -0.093598 -0.939693 0.669036
v -0.206113 -0.939693 0.725062
v -0.290791 -0.939693 0.817950
v -0.336197 -0.939693 0.935154
v -0.336197 -0.939693 1.060846
v -0.290791 -0.939693 1.178050
v -0.206113 -0.939693 1.270938
v -0.093598 -0.939693 1.326964
v 0.031558 -0.939693 1.338561
v 0.152452 -0.939693 1.304164
v 0.252756 -0.939693 1.228418
v 0.318924 -0.939693 1.121552
v 0.342020 -0.939693 0.998000
v 0.466236 -0.866025 0.817379
v 0.369504 -0.866025 0.661152
v 0.222869 -0.866025 0.550418
v 0.046134 -0.866025 0.500133
v -0.136831 -0.866025 0.517087
v -0.301317 -0.866025 0.598991
v -0.425109 -0.866025 0.734784
v -0.491487 -0.866025 0.906125
v -0.491487 -0.866025 1.089875
v -0.425109 -0.866025 1.261216
v -0.301317 -0.866025 1.397009
v -0.136831 -0.866025 1.478913
v 0.046134 -0.866025 1.495867
v 0.222869 -0.866025 1.445582
v 0.369504 -0.866025 1.334848
v 0.466236 -0.866025 1.178621
v 0.500000 -0.866025 0.998000
v 0.599382 -0.766044 0.765798
v 0.475026 -0.766044 0.564957
v 0.286515 -0.766044 0.422600
v 0.059309 -0.766044 0.357954
v -0.175907 -0.766044 0.379750
v -0.387366 -0.766044 0.485044
v -0.546509 -0.766044 0.659616
v -0.631843 -0.766044 0.879888
v -0.631843 -0.766044 1.116112
v -0.546509 -0.766044 1.336384
v -0.387366 -0.766044 1.510956
v -0.175907 -0.766044 1.616250
v 0.059309 -0.766044 1.638046
v 0.286515 -0.766044 1.573400
v 0.475026 -0.766044 1.431043
v 0.599382 -0.766044 1.230202
v 0.642788 -0.766044 0.998000
v 0.714315 -0.642788 0.721273
v 0.566114 -0.642788 0.481919
v 0.341455 -0.642788 0.312265
v 0.070682 -0.642788 0.235223
v -0.209638 -0.642788 0.261199
v -0.461645 -0.642788 0.386683
v -0.651304 -0.642788 0.594730
v -0.753001 -0.642788 0.857240
v -0.753001 -0.642788 1.138760
v -0.651304 -0.642788 1.401271
v -0.461645 -0.642788 1.609317
v -0.209638 -0.642788 1.734801
v 0.070682 -0.642788 1.760777
v 0.341455 -0.642788 1.683735
v 0.566114 -0.642788 1.514081
v 0.714315 -0.642788 1.274727
v 0.766044 -0.642788 0.998000
v 0.807545 -0.500000 0.685156
v 0.640001 -0.500000 0.414563
v 0.386021 -0.500000 0.222766
v 0.079907 -0.500000 0.135669
v -0.236999 -0.500000 0.165035
v -0.521897 -0.500000 0.306897
v -0.736310 -0.500000 0.542096
v -0.851280 -0.500000 0.838868
v -0.851280 -0.500000 1.157132
v -0.736310 -0.500000 1.453904
v -0.521897 -0.500000 1.689103
v -0.236999 -0.500000 1.830966
v 0.079907 -0.500000 1.860331
v 0.386021 -0.500000 1.773234
v 0.640001 -0.500000 1.581438
v 0.807545 -0.500000 1.310844
v 0.866025 -0.500000 0.998000
v 0.876237 -0.342020 0.658544
v 0.694441 -0.342020 0.364933
v 0.418857 -0.342020 0.156822
v 0.086704 -0.342020 0.062316
v -0.257159 -0.342020 0.094180
v -0.566291 -0.342020 0.248109
v -0.798943 -0.342020 0.503316
v -0.923693 -0.342020 0.825332
v -0.923693 -0.342020 1.170668
v -0.798943 -0.342020 1.492684
v -0.566291 -0.342020 1.747891
v -0.257159 -0.342020 1.901820
v 0.086704 -0.342020 1.933684
v 0.418857 -0.342020 1.839178
v 0.694441 -0.342020 1.631067
v 0.876237 -0.342020 1.337456
v 0.939693 -0.342020 0.998000
v 0.918306 -0.173648 0.642246
v 0.727782 -0.173648 0.334539
v 0.438967 -0.173648 0.116436
v 0.090867 -0.173648 0.017393
v -0.269505 -0.173648 0.050787
v -0.593479 -0.173648 0.212106
v -0.837300 -0.173648 0.479566
v -0.968039 -0.173648 0.817042
v -0.968039 -0.173648 1.178958
v -0.837300 -0.173648 1.516434
v -0.593479 -0.173648 1.783894
v -0.269505 -0.173648 1.945213
v 0.090867 -0.173648 1.978607
v 0.438967 -0.173648 1.879564
v 0.727782 -0.173648 1.661461
v 0.918306 -0.173648 1.353754
v 0.984808 -0.173648 0.998000
v 0.000000 -1.000000 0.998000
v 0.932472 0.000000 0.636758
v 0.739009 0.000000 0.324304
v 0.445738 0.000000 0.102837
v 0.092268 0.000000 0.002266
v -0.273663 0.000000 0.036174
v -0.602635 0.000000 0.199983
v -0.850217 0.000000 0.471568
v -0.982973 0.000000 0.814251
v -0.982973 0.000000 1.181750
v -0.850217 0.000000 1.524432
v -0.602635 0.000000 1.796017
v -0.273663 0.000000 1.959826
v 0.092268 0.000000 1.993734
v 0.445738 0.000000 1.893163
v 0.739009 0.000000 1.671696
v 0.932472 0.000000 1.359242
v 1.000000 0.000000 0.998000
vt 0.860744 0.045842
vt 0.859201 0.043574
vt 0.864492 0.038283
vt 0.867589 0.042819
vt 0.856943 0.042016
vt 0.859965 0.035171
vt 0.854274 0.041380
vt 0.854620 0.033905
vt 0.851556 0.041750
vt 0.849178 0.034655
vt 0.849156 0.043077
vt 0.844375 0.037321
vt 0.847397 0.045182
vt 0.840860 0.041541
vt 0.846517 0.047780
vt 0.839106 0.046746
vt 0.846635 0.050520
vt 0.839351 0.052234
vt 0.847735 0.053033
vt 0.841561 0.057262
vt 0.849668 0.054979
vt 0.845439 0.061152
vt 0.852174 0.056095
vt 0.850461 0.063379
vt 0.854913 0.056231
vt 0.855947 0.063641
vt 0.857517 0.055367
vt 0.861158 0.061904
vt 0.859633 0.053621
vt 0.865390 0.058402
vt 0.860975 0.051229
vt 0.868070 0.053607
vt 0.861363 0.048514
vt 0.868838 0.048168
vt 0.869801 0.032934
vt 0.874472 0.039750
vt 0.862984 0.028265
vt 0.854940 0.026375
vt 0.846757 0.027518
vt 0.839539 0.031540
vt 0.834262 0.037898
vt 0.831637 0.045732
vt 0.832020 0.053986
vt 0.835359 0.061544
vt 0.841203 0.067386
vt 0.848762 0.070722
vt 0.857016 0.071102
vt 0.864850 0.068475
vt 0.871206 0.063195
vt 0.875225 0.055976
vt 0.876365 0.047793
vt 0.875155 0.027504
vt 0.881425 0.036621
vt 0.866015 0.021269
vt 0.855239 0.018756
vt 0.844283 0.020306
vt 0.834627 0.025708
vt 0.827575 0.034234
vt 0.824078 0.044732
vt 0.824611 0.055784
vt 0.829099 0.065898
vt 0.836938 0.073707
vt 0.847069 0.078157
vt 0.858123 0.078646
vt 0.868607 0.075110
vt 0.877106 0.068025
vt 0.882472 0.058348
vt 0.883979 0.047387
vt 0.880581 0.021969
vt 0.888485 0.033419
vt 0.869075 0.014147
vt 0.855520 0.011010
vt 0.841747 0.012981
vt 0.829616 0.019795
vt 0.820766 0.030530
vt 0.816391 0.043738
vt 0.817083 0.057634
vt 0.822748 0.070342
vt 0.832622 0.080145
vt 0.845369 0.085719
vt 0.859270 0.086312
vt 0.872446 0.081844
vt 0.883119 0.072917
vt 0.889845 0.060738
vt 0.891719 0.046951
vt 0.886118 0.016297
vt 0.895697 0.030131
vt 0.872189 0.006858
vt 0.855790 0.003088
vt 0.839137 0.005497
vt 0.824479 0.013758
vt 0.813795 0.026757
vt 0.808528 0.042737
vt 0.809390 0.059541
vt 0.816264 0.074900
vt 0.828221 0.086737
vt 0.843648 0.093456
vt 0.860460 0.094149
vt 0.876386 0.088721
vt 0.889277 0.077907
vt 0.897391 0.063166
vt 0.899631 0.046490
vt 0.964384 0.287292
vt 1.051223 0.287587
vt 1.051100 0.357398
vt 0.964318 0.357218
vt 1.137846 0.288031
vt 1.137684 0.357668
vt 1.224188 0.288563
vt 1.224009 0.357992
vt 1.310221 0.289108
vt 1.310049 0.358324
vt -0.153797 0.289108
vt -0.068058 0.289594
vt -0.068200 0.358619
vt -0.153969 0.358324
vt 0.017439 0.289957
vt 0.017346 0.358840
vt 0.102779 0.290150
vt 0.102747 0.358958
vt 0.188064 0.290150
vt 0.188096 0.358958
vt 0.273404 0.289957
vt 0.273497 0.358840
vt 0.358901 0.289594
vt 0.359043 0.358619
vt 0.444640 0.289108
vt 0.444812 0.358324
vt 0.530673 0.288563
vt 0.530852 0.357992
vt 0.617015 0.288031
vt 0.617177 0.357668
vt 0.703639 0.287587
vt 0.703761 0.357398
vt 0.790477 0.287292
vt 0.790543 0.357218
vt 0.877430 0.287188
vt 0.877430 0.357155
vt 1.051034 0.426259
vt 0.964283 0.426196
vt 1.137597 0.426354
vt 1.223913 0.426467
vt 1.309957 0.426583
vt -0.068276 0.426687
vt -0.154061 0.426583
vt 0.017296 0.426764
vt 0.102729 0.426805
vt 0.188114 0.426805
vt 0.273547 0.426764
vt 0.359119 0.426687
vt 0.444904 0.426583
vt 0.530948 0.426467
vt 0.617264 0.426354
vt 0.703827 0.426259
vt 0.790578 0.426196
vt 0.877430 0.426174
vt 1.051013 0.494163
vt 0.964272 0.494214
vt 1.137569 0.494086
vt 1.223882 0.493994
vt 1.309927 0.493900
vt -0.068300 0.493816
vt -0.154091 0.493900
vt 0.017280 0.493753
vt 0.102724 0.493720
vt 0.188119 0.493720
vt 0.273563 0.493753
vt 0.359143 0.493816
vt 0.444933 0.493900
vt 0.530979 0.493994
vt 0.617292 0.494086
vt 0.703848 0.494163
vt 0.790590 0.494214
vt 0.877430 0.494232
vt 0.853906 0.048835
vn 0.208140 -0.974770 -0.080634
vn 0.164957 -0.974770 -0.150378
vn 0.273397 -0.929051 -0.249234
vn 0.344969 -0.929051 -0.133642
vn 0.099495 -0.974770 -0.199813
vn 0.164901 -0.929051 -0.331166
vn 0.020596 -0.974770 -0.222261
vn 0.034135 -0.929051 -0.368372
vn -0.061085 -0.974770 -0.214692
vn -0.101242 -0.929051 -0.355828
vn -0.134516 -0.974770 -0.178128
vn -0.222945 -0.929051 -0.295227
vn -0.189780 -0.974770 -0.117507
vn -0.314538 -0.929051 -0.194754
vn -0.219413 -0.974770 -0.041015
vn -0.363652 -0.929051 -0.067978
vn -0.219413 -0.974770 0.041015
vn -0.363652 -0.929051 0.067978
vn -0.189780 -0.974770 0.117507
vn -0.314538 -0.929051 0.194754
vn -0.134516 -0.974770 0.178128
vn -0.222945 -0.929052 0.295227
vn -0.061085 -0.974770 0.214692
vn -0.101242 -0.929052 0.355828
vn 0.020596 -0.974770 0.222261
vn 0.034135 -0.929051 0.368372
vn 0.099495 -0.974770 0.199812
vn 0.164901 -0.929051 0.331166
vn 0.164956 -0.974770 0.150378
vn 0.273397 -0.929052 0.249234
vn 0.208140 -0.974770 0.080634
vn 0.344969 -0.929051 0.133642
vn 0.223213 -0.974770 -0.000000
vn 0.369951 -0.929051 -0.000000
vn 0.383387 -0.854905 -0.349503
vn 0.483753 -0.854905 -0.187407
vn 0.231242 -0.854905 -0.464397
vn 0.047867 -0.854905 -0.516572
vn -0.141972 -0.854905 -0.498981
vn -0.312638 -0.854905 -0.413999
vn -0.441080 -0.854905 -0.273105
vn -0.509952 -0.854905 -0.095327
vn -0.509952 -0.854905 0.095327
vn -0.441080 -0.854905 0.273105
vn -0.312638 -0.854905 0.413999
vn -0.141972 -0.854905 0.498980
vn 0.047867 -0.854905 0.516572
vn 0.231242 -0.854905 0.464397
vn 0.383387 -0.854905 0.349503
vn 0.483752 -0.854905 0.187407
vn 0.518785 -0.854905 -0.000000
vn 0.484497 -0.755105 -0.441678
vn 0.611333 -0.755105 -0.236832
vn 0.292228 -0.755105 -0.586873
vn 0.060492 -0.755105 -0.652807
vn -0.179415 -0.755105 -0.630577
vn -0.395090 -0.755105 -0.523183
vn -0.557406 -0.755105 -0.345131
vn -0.644441 -0.755105 -0.120467
vn -0.644441 -0.755105 0.120467
vn -0.557406 -0.755105 0.345131
vn -0.395090 -0.755105 0.523183
vn -0.179415 -0.755105 0.630577
vn 0.060491 -0.755105 0.652807
vn 0.292228 -0.755105 0.586873
vn 0.484497 -0.755105 0.441678
vn 0.611333 -0.755105 0.236832
vn 0.655604 -0.755105 -0.000000
vn 0.572227 -0.632797 -0.521654
vn 0.722030 -0.632797 -0.279716
vn 0.345143 -0.632797 -0.693141
vn 0.071445 -0.632797 -0.771014
vn -0.211902 -0.632797 -0.744758
vn -0.466631 -0.632797 -0.617919
vn -0.658338 -0.632797 -0.407626
vn -0.761133 -0.632797 -0.142281
vn -0.761133 -0.632797 0.142280
vn -0.658338 -0.632797 0.407626
vn -0.466630 -0.632797 0.617919
vn -0.211902 -0.632797 0.744758
vn 0.071445 -0.632797 0.771014
vn 0.345143 -0.632797 0.693141
vn 0.572227 -0.632797 0.521654
vn 0.722030 -0.632797 0.279716
vn 0.774318 -0.632797 -0.000000
vn 0.643497 -0.491714 -0.586625
vn 0.811956 -0.491714 -0.314554
vn 0.388130 -0.491714 -0.779469
vn 0.080343 -0.491714 -0.867042
vn -0.238294 -0.491714 -0.837516
vn -0.524748 -0.491714 -0.694879
vn -0.740332 -0.491714 -0.458394
vn -0.855930 -0.491714 -0.160001
vn -0.855930 -0.491714 0.160001
vn -0.740332 -0.491714 0.458394
vn -0.524748 -0.491714 0.694879
vn -0.238294 -0.491714 0.837516
vn 0.080343 -0.491714 0.867042
vn 0.388130 -0.491714 0.779469
vn 0.643497 -0.491714 0.586625
vn 0.811957 -0.491714 0.314554
vn 0.870757 -0.491714 -0.000000
vn 0.696020 -0.336092 -0.634506
vn 0.878230 -0.336092 -0.340228
vn 0.419809 -0.336092 -0.843091
vn 0.086901 -0.336092 -0.937811
vn -0.257744 -0.336092 -0.905875
vn -0.567579 -0.336092 -0.751596
vn -0.800759 -0.336092 -0.495809
vn -0.925793 -0.336092 -0.173061
vn -0.925793 -0.336092 0.173061
vn -0.800759 -0.336092 0.495809
vn -0.567579 -0.336092 0.751596
vn -0.257744 -0.336092 0.905875
vn 0.086901 -0.336092 0.937811
vn 0.419809 -0.336092 0.843091
vn 0.696020 -0.336092 0.634506
vn 0.878230 -0.336092 0.340228
vn 0.941829 -0.336092 -0.000000
vn 0.728181 -0.170557 -0.663825
vn 0.918809 -0.170557 -0.355949
vn 0.439207 -0.170557 -0.882047
vn 0.090917 -0.170557 -0.981144
vn -0.269653 -0.170558 -0.947733
vn -0.593805 -0.170558 -0.786324
vn -0.837759 -0.170558 -0.518719
vn -0.968570 -0.170557 -0.181057
vn -0.968570 -0.170557 0.181057
vn -0.837759 -0.170558 0.518719
vn -0.593805 -0.170557 0.786325
vn -0.269653 -0.170557 0.947733
vn 0.090916 -0.170557 0.981145
vn 0.439207 -0.170557 0.882047
vn 0.728181 -0.170558 0.663825
vn 0.918809 -0.170558 0.355949
vn 0.985348 -0.170557 -0.000000
vn 0.736197 -0.087156 -0.671132
vn 0.928924 -0.087156 -0.359867
vn 0.444042 -0.087156 -0.891757
vn 0.091917 -0.087156 -0.991945
vn -0.272622 -0.087156 -0.958166
vn -0.600341 -0.087156 -0.794980
vn -0.846982 -0.087156 -0.524429
vn -0.979233 -0.087156 -0.183050
vn -0.979233 -0.087156 0.183050
vn -0.846982 -0.087156 0.524429
vn -0.600341 -0.087156 0.794981
vn -0.272622 -0.087156 0.958166
vn 0.091917 -0.087156 0.991945
vn 0.444042 -0.087156 0.891757
vn 0.736197 -0.087156 0.671132
vn 0.928924 -0.087156 0.359867
vn 0.996195 -0.087156 -0.000000
vn 0.000000 -1.000000 -0.000000
s 1
g polySurface1 pSphere1
usemtl lambert4SG
f 1/1/1 2/2/2 19/3/3 18/4/4
f 2/2/2 3/5/5 20/6/6 19/3/3
f 3/5/5 4/7/7 21/8/8 20/6/6
f 4/7/7 5/9/9 22/10/10 21/8/8
f 5/9/9 6/11/11 23/12/12 22/10/10
f 6/11/11 7/13/13 24/14/14 23/12/12
f 7/13/13 8/15/15 25/16/16 24/14/14
f 8/15/15 9/17/17 26/18/18 25/16/16
f 9/17/17 10/19/19 27/20/20 26/18/18
f 10/19/19 11/21/21 28/22/22 27/20/20
f 11/21/21 12/23/23 29/24/24 28/22/22
f 12/23/23 13/25/25 30/26/26 29/24/24
f 13/25/25 14/27/27 31/28/28 30/26/26
f 14/27/27 15/29/29 32/30/30 31/28/28
f 15/29/29 16/31/31 33/32/32 32/30/30
f 16/31/31 17/33/33 34/34/34 33/32/32
f 17/33/33 1/1/1 18/4/4 34/34/34
f 18/4/4 19/3/3 36/35/35 35/36/36
f 19/3/3 20/6/6 37/37/37 36/35/35
f 20/6/6 21/8/8 38/38/38 37/37/37
f 21/8/8 22/10/10 39/39/39 38/38/38
f 22/10/10 23/12/12 40/40/40 39/39/39
f 23/12/12 24/14/14 41/41/41 40/40/40
f 24/14/14 25/16/16 42/42/42 41/41/41
f 25/16/16 26/18/18 43/43/43 42/42/42
f 26/18/18 27/20/20 44/44/44 43/43/43
f 27/20/20 28/22/22 45/45/45 44/44/44
f 28/22/22 29/24/24 46/46/46 45/45/45
f 29/24/24 30/26/26 47/47/47 46/46/46
f 30/26/26 31/28/28 48/48/48 47/47/47
f 31/28/28 32/30/30 49/49/49 48/48/48
f 32/30/30 33/32/32 50/50/50 49/49/49
f 33/32/32 34/34/34 51/51/51 50/50/50
f 34/34/34 18/4/4 35/36/36 51/51/51
f 35/36/36 36/35/35 53/52/52 52/53/53
f 36/35/35 37/37/37 54/54/54 53/52/52
f 37/37/37 38/38/38 55/55/55 54/54/54
f 38/38/38 39/39/39 56/56/56 55/55/55
f 39/39/39 40/40/40 57/57/57 56/56/56
f 40/40/40 41/41/41 58/58/58 57/57/57
f 41/41/41 42/42/42 59/59/59 58/58/58
f 42/42/42 43/43/43 60/60/60 59/59/59
f 43/43/43 44/44/44 61/61/61 60/60/60
f 44/44/44 45/45/45 62/62/62 61/61/61
f 45/45/45 46/46/46 63/63/63 62/62/62
f 46/46/46 47/47/47 64/64/64 63/63/63
f 47/47/47 48/48/48 65/65/65 64/64/64
f 48/48/48 49/49/49 66/66/66 65/65/65
f 49/49/49 50/50/50 67/67/67 66/66/66
f 50/50/50 51/51/51 68/68/68 67/67/67
f 51/51/51 35/36/36 52/53/53 68/68/68
f 52/53/53 53/52/52 70/69/69 69/70/70
f 53/52/52 54/54/54 71/71/71 70/69/69
f 54/54/54 55/55/55 72/72/72 71/71/71
f 55/55/55 56/56/56 73/73/73 72/72/72
f 56/56/56 57/57/57 74/74/74 73/73/73
f 57/57/57 58/58/58 75/75/75 74/74/74
f 58/58/58 59/59/59 76/76/76 75/75/75
f 59/59/59 60/60/60 77/77/77 76/76/76
f 60/60/60 61/61/61 78/78/78 77/77/77
f 61/61/61 62/62/62 79/79/79 78/78/78
f 62/62/62 63/63/63 80/80/80 79/79/79
f 63/63/63 64/64/64 81/81/81 80/80/80
f 64/64/64 65/65/65 82/82/82 81/81/81
f 65/65/65 66/66/66 83/83/83 82/82/82
f 66/66/66 67/67/67 84/84/84 83/83/83
f 67/67/67 68/68/68 85/85/85 84/84/84
f 68/68/68 52/53/53 69/70/70 85/85/85
f 69/70/70 70/69/69 87/86/86 86/87/87
f 70/69/69 71/71/71 88/88/88 87/86/86
f 71/71/71 72/72/72 89/89/89 88/88/88
f 72/72/72 73/73/73 90/90/90 89/89/89
f 73/73/73 74/74/74 91/91/91 90/90/90
f 74/74/74 75/75/75 92/92/92 91/91/91
f 75/75/75 76/76/76 93/93/93 92/92/92
f 76/76/76 77/77/77 94/94/94 93/93/93
f 77/77/77 78/78/78 95/95/95 94/94/94
f 78/78/78 79/79/79 96/96/96 95/95/95
f 79/79/79 80/80/80 97/97/97 96/96/96
f 80/80/80 81/81/81 98/98/98 97/97/97
f 81/81/81 82/82/82 99/99/99 98/98/98
f 82/82/82 83/83/83 100/100/100 99/99/99
f 83/83/83 84/84/84 101/101/101 100/100/100
f 84/84/84 85/85/85 102/102/102 101/101/101
f 85/85/85 69/70/70 86/87/87 102/102/102
f 86/103/87 87/104/86 104/105/103 103/106/104
f 87/104/86 88/107/88 105/108/105 104/105/103
f 88/107/88 89/109/89 106/110/106 105/108/105
f 89/109/89 90/111/90 107/112/107 106/110/106
f 90/113/90 91/114/91 108/115/108 107/116/107
f 91/114/91 92/117/92 109/118/109 108/115/108
f 92/117/92 93/119/93 110/120/110 109/118/109
f 93/119/93 94/121/94 111/122/111 110/120/110
f 94/121/94 95/123/95 112/124/112 111/122/111
f 95/123/95 96/125/96 113/126/113 112/124/112
f 96/125/96 97/127/97 114/128/114 113/126/113
f 97/127/97 98/129/98 115/130/115 114/128/114
f 98/129/98 99/131/99 116/132/116 115/130/115
f 99/131/99 100/133/100 117/134/117 116/132/116
f 100/133/100 101/135/101 118/136/118 117/134/117
f 101/135/101 102/137/102 119/138/119 118/136/118
f 102/137/102 86/103/87 103/106/104 119/138/119
f 103/106/104 104/105/103 121/139/120 120/140/121
f 104/105/103 105/108/105 122/141/122 121/139/120
f 105/108/105 106/110/106 123/142/123 122/141/122
f 106/110/106 107/112/107 124/143/124 123/142/123
f 107/116/107 108/115/108 125/144/125 124/145/124
f 108/115/108 109/118/109 126/146/126 125/144/125
f 109/118/109 110/120/110 127/147/127 126/146/126
f 110/120/110 111/122/111 128/148/128 127/147/127
f 111/122/111 112/124/112 129/149/129 128/148/128
f 112/124/112 113/126/113 130/150/130 129/149/129
f 113/126/113 114/128/114 131/151/131 130/150/130
f 114/128/114 115/130/115 132/152/132 131/151/131
f 115/130/115 116/132/116 133/153/133 132/152/132
f 116/132/116 117/134/117 134/154/134 133/153/133
f 117/134/117 118/136/118 135/155/135 134/154/134
f 118/136/118 119/138/119 136/156/136 135/155/135
f 119/138/119 103/106/104 120/140/121 136/156/136
f 120/140/121 121/139/120 139/157/137 138/158/138
f 121/139/120 122/141/122 140/159/139 139/157/137
f 122/141/122 123/142/123 141/160/140 140/159/139
f 123/142/123 124/143/124 142/161/141 141/160/140
f 124/145/124 125/144/125 143/162/142 142/163/141
f 125/144/125 126/146/126 144/164/143 143/162/142
f 126/146/126 127/147/127 145/165/144 144/164/143
f 127/147/127 128/148/128 146/166/145 145/165/144
f 128/148/128 129/149/129 147/167/146 146/166/145
f 129/149/129 130/150/130 148/168/147 147/167/146
f 130/150/130 131/151/131 149/169/148 148/168/147
f 131/151/131 132/152/132 150/170/149 149/169/148
f 132/152/132 133/153/133 151/171/150 150/170/149
f 133/153/133 134/154/134 152/172/151 151/171/150
f 134/154/134 135/155/135 153/173/152 152/172/151
f 135/155/135 136/156/136 154/174/153 153/173/152
f 136/156/136 120/140/121 138/158/138 154/174/153
f 2/2/2 1/1/1 137/175/154
f 3/5/5 2/2/2 137/175/154
f 4/7/7 3/5/5 137/175/154
f 5/9/9 4/7/7 137/175/154
f 6/11/11 5/9/9 137/175/154
f 7/13/13 6/11/11 137/175/154
f 8/15/15 7/13/13 137/175/154
f 9/17/17 8/15/15 137/175/154
f 10/19/19 9/17/17 137/175/154
f 11/21/21 10/19/19 137/175/154
f 12/23/23 11/21/21 137/175/154
f 13/25/25 12/23/23 137/175/154
f 14/27/27 13/25/25 137/175/154
f 15/29/29 14/27/27 137/175/154
f 16/31/31 15/29/29 137/175/154
f 17/33/33 16/31/31 137/175/154
f 1/1/1 17/33/33 137/175/154
